<?xml version="1.0" standalone="no"?>
<!DOCTYPE svg PUBLIC "-//W3C//DTD SVG 20010904//EN"
 "http://www.w3.org/TR/2001/REC-SVG-20010904/DTD/svg10.dtd">
<svg version="1.0" xmlns="http://www.w3.org/2000/svg"
 width="512" height="512" viewBox="0 0 512 512"
 preserveAspectRatio="xMidYMid meet">
<g fill="#C6C6C6" transform="translate(0.000000,500.000000) scale(0.100000,-0.100000)"
 stroke="none">
<path d="M520 4120 c0 -286 2 -520 5 -520 3 0 175 71 383 159 207 87 439 184
515 216 l137 58 0 303 0 304 -520 0 -520 0 0 -520z"/>
<path d="M1700 4331 l0 -309 133 -113 132 -112 5 -128 5 -127 75 42 c41 23
179 100 305 170 127 71 285 160 353 198 l122 69 0 310 0 309 -565 0 -565 0 0
-309z"/>
<path d="M2972 4313 l3 -298 45 -3 c86 -5 335 -43 435 -67 365 -86 775 -273
1094 -499 51 -37 96 -65 98 -62 8 8 -24 184 -46 256 -30 94 -46 116 -166 219
-360 311 -719 519 -1145 664 -107 37 -285 87 -308 87 -10 0 -12 -63 -10 -297z"/>
<path d="M2350 3596 c-52 -30 -158 -90 -235 -133 l-140 -79 -3 -636 -2 -636
-38 -27 c-20 -16 -52 -42 -69 -58 l-33 -31 0 -750 0 -751 180 -113 c99 -61
185 -112 191 -112 6 0 101 59 210 132 l199 132 0 111 0 111 -75 74 -75 74 0
1373 c0 755 -3 1373 -7 1373 -5 0 -51 -25 -103 -54z"/>
</g>
</svg>
